<svg width="42" height="42" viewBox="0 0 42 42" fill="none" xmlns="http://www.w3.org/2000/svg">
<path d="M28 28H31V31H28V28Z" fill="white"/>
<path d="M7 7H10V10H7V7Z" fill="white"/>
<path d="M10 10H13V13H10V10Z" fill="white"/>
<path d="M16 16H19V19H16V16Z" fill="white"/>
<path d="M19 19H22V22H19V19Z" fill="white"/>
<path d="M16 22H19V25H16V22Z" fill="white"/>
<path d="M13 25H16V28H13V25Z" fill="white"/>
<path d="M10 28H13V31H10V28Z" fill="white"/>
<path d="M7 31H10V34H7V31Z" fill="white"/>
<path d="M22 16H25V19H22V16Z" fill="white"/>
<path d="M25 13H28V16H25V13Z" fill="white"/>
<path d="M28 10H31V13H28V10Z" fill="white"/>
<path d="M31 7H34V10H31V7Z" fill="white"/>
<path d="M22 22H25V25H22V22Z" fill="white"/>
<path d="M25 25H28V28H25V25Z" fill="white"/>
<path d="M31 31H34V34H31V31Z" fill="white"/>
<path d="M16 13H13V16H16V13Z" fill="white"/>
</svg>
