<svg width="42" height="42" viewBox="0 0 42 42" fill="none" xmlns="http://www.w3.org/2000/svg">
<path d="M19 25H13V28H19V25Z" fill="white"/>
<path d="M37 7H34V28H37V7Z" fill="white"/>
<path d="M10 17H7L7 34H10L10 17Z" fill="white"/>
<path d="M34 7L17 7V10H34V7Z" fill="white"/>
<path d="M28 28H31V31H28V28Z" fill="white"/>
<path d="M7 7H10V10H7V7Z" fill="white"/>
<path d="M10 10H13V13H10V10Z" fill="white"/>
<path d="M10 28H13V31H10V28Z" fill="white"/>
<path d="M16 16H19V19H16V16Z" fill="white"/>
<path d="M19 19H22V22H19V19Z" fill="white"/>
<path d="M22 22H25V25H22V22Z" fill="white"/>
<path d="M25 25H28V28H25V25Z" fill="white"/>
<path d="M31 31H34V34H31V31Z" fill="white"/>
<path d="M16 13H13V16H16V13Z" fill="white"/>
</svg>
