<svg width="42" height="42" viewBox="0 0 42 42" fill="none" xmlns="http://www.w3.org/2000/svg">
<path d="M6 6H9V9H6V6Z" fill="white"/>
<path d="M9 9H12V12H9V9Z" fill="white"/>
<path d="M12 12H15V15H12V12Z" fill="white"/>
<path d="M15 15H18V18H15V15Z" fill="white"/>
<path d="M18 18H21V21H18V18Z" fill="white"/>
<path d="M21 21H24V24H21V21Z" fill="white"/>
<path d="M24 24H27V27H24V27Z" fill="white"/>
<path d="M27 27H30V30H27V30Z" fill="white"/>
<path d="M30 30H33V33H30V33Z" fill="white"/>
<path d="M33 33H36V36H33V36Z" fill="white"/>
<path d="M33 6H36V9H33V6Z" fill="white"/>
<path d="M30 9H33V12H30V9Z" fill="white"/>
<path d="M27 12H30V15H27V12Z" fill="white"/>
<path d="M24 15H27V18H24V15Z" fill="white"/>
<path d="M15 21H18V24H15V21Z" fill="white"/>
<path d="M12 24H15V27H12V24Z" fill="white"/>
<path d="M9 27H12V30H9V27Z" fill="white"/>
<path d="M6 30H9V33H6V30Z" fill="white"/>
</svg>
