<svg width="42" height="42" viewBox="0 0 42 42" fill="none" xmlns="http://www.w3.org/2000/svg">
<path d="M19 7H22V10H19V7Z" fill="white"/>
<path d="M19 10H22V13H19V10Z" fill="white"/>
<path d="M19 28H22V31H19V28Z" fill="white"/>
<path d="M19 31H22V34H19V31Z" fill="white"/>
<path d="M28 28H31V31H28V28Z" fill="white"/>
<path d="M7 7H10V10H7V7Z" fill="white"/>
<path d="M10 10H13V13H10V10Z" fill="white"/>
<path d="M16 16H19V19H16V16Z" fill="white"/>
<path d="M19 19H22V22H19V19Z" fill="white"/>
<path d="M22 22H25V25H22V22Z" fill="white"/>
<path d="M25 25H28V28H25V25Z" fill="white"/>
<path d="M31 31H34V34H31V31Z" fill="white"/>
<path d="M19 28H16V31H19V28Z" fill="white"/>
<path d="M13 22H10V25H13V22Z" fill="white"/>
<path d="M16 13H13V16H16V13Z" fill="white"/>
<path d="M16 25H13V28H16V25Z" fill="white"/>
<path d="M10 16H7V25H10V16Z" fill="white"/>
</svg>
