<svg width="42" height="42" viewBox="0 0 42 42" fill="none" xmlns="http://www.w3.org/2000/svg">
<path d="M19 7H22V34H19V7Z" fill="white"/>
<path d="M28 19H31V22H28V19Z" fill="white"/>
<path d="M25 16H28V19H25V16Z" fill="white"/>
<path d="M28 10H31V13H28V10Z" fill="white"/>
<path d="M34 16H37V25H34V16Z" fill="white"/>
<path d="M31 25H34V28H31V25Z" fill="white"/>
<path d="M28 28H31V31H28V28Z" fill="white"/>
<path d="M31 13H34V16H31V13Z" fill="white"/>
<path d="M25 22H28V25H25V22Z" fill="white"/>
<path d="M19 28H16V31H19V28Z" fill="white"/>
<path d="M13 22H10V25H13V22Z" fill="white"/>
<path d="M13 16H10V19H13V16Z" fill="white"/>
<path d="M16 13H13V16H16V13Z" fill="white"/>
<path d="M19 10H16V13H19V10Z" fill="white"/>
<path d="M16 25H13V28H16V25Z" fill="white"/>
<path d="M10 16H7V25H10V16Z" fill="white"/>
</svg>
