<svg viewBox="0 0 68 11" fill="none" xmlns="http://www.w3.org/2000/svg">
<path d="M0 0H0.888V3.708H1.5V2.964H2.232V2.22H2.976V1.476H3.72V0.732001H4.464V0H5.328V0.864H4.584V1.608H3.852V2.352H3.108V3.096H2.364V3.828H1.62V5.184H2.364V5.928H3.108V6.672H3.852V8.16H4.584V8.892H5.328V9.78H4.464V9.024H3.72V8.28H2.976V6.804H2.232V6.06H1.5V5.316H0.888V9.78H0V0Z" fill="white"/>
<path d="M6 6.672H6.756V5.928H9.72V3.828H6.888V5.316H6V3.708H6.756V2.964H9.852V3.708H10.584V8.892H11.328V9.78H10.464V9.024H9.108V9.78H6.756V9.024H6V6.672ZM8.976 8.892V8.16H9.72V6.804H6.888V8.892H8.976Z" fill="white"/>
<path d="M13.872 3.828H12.372V2.964H13.872V0.732001H14.736V2.964H16.956V3.828H14.736V8.892H16.956V9.78H14.604V9.024H13.872V3.828Z" fill="white"/>
<path d="M18 7.416H18.888V8.892H22.464V6.804H18.756V6.06H18V3.708H18.756V2.964H22.584V3.708H23.328V5.316H22.464V3.828H18.888V5.928H22.584V6.672H23.328V9.024H22.584V9.78H18.756V9.024H18V7.416Z" fill="white"/>
<path d="M24.756 8.28H24V2.964H24.888V8.16H25.62V8.892H27.72V8.16H28.464V2.964H29.328V9.78H28.464V9.024H27.852V9.78H25.5V9.024H24.756V8.28Z" fill="white"/>
<path d="M32.232 9.636V8.28H31.5V6.804H30.756V4.572H30V2.964H30.888V4.44H31.62V6.672H32.364V8.16H32.976V6.672H33.72V4.44H34.464V2.964H35.328V4.572H34.584V6.804H33.852V8.28H33.108V9.78H32.364V10.524H30V9.636H32.232Z" fill="white"/>
<path d="M36.756 8.28H36V4.44H36.756V3.708H37.5V2.964H39.852V3.708H40.584V4.44H41.328V8.28H40.584V9.024H39.852V9.78H37.5V9.024H36.756V8.28ZM37.62 8.16V8.892H39.72V8.16H40.464V4.572H39.72V3.828H37.62V4.572H36.888V8.16H37.62Z" fill="white"/>
<path d="M36.592 0.732001H41.164V1.608H36.592V0.732001Z" fill="white"/>
<path d="M46.592 0H50.444V0.732001H51.176V1.476H51.92V8.28H51.176V9.024H50.444V9.78H46.592V0ZM50.312 8.892V8.16H51.056V1.608H50.312V0.864H47.48V8.892H50.312Z" fill="white"/>
<path d="M53.336 2.964H54.2V3.708H54.812V2.964H57.164V3.828H54.944V4.572H54.2V9.78H53.336V2.964Z" fill="white"/>
<path d="M59.288 0.732001H60.164V2.352H59.288V0.732001ZM59.288 2.964H60.164V9.78H59.288V2.964Z" fill="white"/>
<path d="M63.288 0.732001H64.164V9.78H63.288V0.732001Z" fill="white"/>
<path d="M66.788 0.732001H67.664V9.78H66.788V0.732001Z" fill="white"/>
</svg>
