<svg width="222" height="64" viewBox="0 0 222 64" fill="none" xmlns="http://www.w3.org/2000/svg">
<rect x="2.44718" y="2.44718" width="216.813" height="58.3415" stroke="#A05A52" stroke-width="4.89436"/>
<path d="M18.354 44.1179V41.2914H21.1805V21.506H18.354V18.6795H29.66V24.3325H32.4865V27.1589H35.313V21.506H32.4865V18.6795H46.619V21.506H43.7925V24.3325H40.966V44.1179H35.313V41.2914H32.4865V38.4649H29.66V32.8119H26.8335V41.2914H29.66V44.1179H18.354ZM46.6018 44.1179V41.2914H49.4282V21.506H46.6018V18.6795H66.3872V27.1589H60.7342V24.3325H57.9077V29.9854H63.5607V32.8119H57.9077V41.2914H60.7342V38.4649H63.5607V35.6384H66.3872V38.4649H69.2137V44.1179H46.6018ZM72.048 44.1179V38.4649H69.2215V24.3325H72.048V21.506H74.8744V18.6795H91.8334V27.1589H86.1804V24.3325H77.7009V38.4649H80.5274V41.2914H83.3539V35.6384H80.5274V32.8119H94.6599V35.6384H91.8334V44.1179H86.1804V46.9444H77.7009V44.1179H72.048ZM103.905 38.4649V41.2914H109.558V38.4649H103.905ZM95.4259 41.2914V38.4649H98.2524V29.9854H101.079V24.3325H103.905V18.6795H112.385V27.1589H115.211V35.6384H118.038V41.2914H120.864V44.1179H92.5994V41.2914H95.4259ZM120.872 44.1179V41.2914H123.699V27.1589H115.219V21.506H118.046V18.6795H140.658V27.1589H135.005V24.3325H132.178V41.2914H135.005V44.1179H120.872ZM140.665 44.1179V41.2914H143.492V21.506H140.665V18.6795H154.798V21.506H151.971V41.2914H154.798V44.1179H140.665ZM160.442 41.2914V32.8119H157.616V27.1589H154.789V21.506H151.963V18.6795H180.228V21.506H177.401V27.1589H174.575V35.6384H171.748V41.2914H168.922V44.1179H163.269V41.2914H160.442ZM168.922 29.9854V21.506H163.269V27.1589H166.095V29.9854H168.922ZM180.241 44.1179V41.2914H183.067V21.506H180.241V18.6795H200.026V27.1589H194.373V24.3325H191.547V29.9854H197.2V32.8119H191.547V41.2914H194.373V38.4649H197.2V35.6384H200.026V38.4649H202.853V44.1179H180.241Z" fill="#A05A52"/>
</svg>
