<svg width="171" height="64" viewBox="0 0 171 64" fill="none" xmlns="http://www.w3.org/2000/svg">
<rect x="2.3557" y="2.3557" width="166.077" height="58.3035" stroke="#454545" stroke-width="4.7114"/>
<rect x="35.2354" y="21.2383" width="3.41576" height="3.42313" fill="#454545"/>
<rect x="35.2354" y="24.6614" width="3.41576" height="3.42313" fill="#454545"/>
<rect x="35.2354" y="28.0845" width="3.41576" height="3.42313" fill="#454545"/>
<rect x="35.2354" y="31.5076" width="3.41576" height="3.42313" fill="#454545"/>
<rect x="31.8193" y="31.5076" width="3.41576" height="3.42313" fill="#454545"/>
<rect x="28.4038" y="31.5076" width="3.41576" height="3.42313" fill="#454545"/>
<rect x="17.668" y="31.5076" width="3.41576" height="3.42313" fill="#454545"/>
<rect x="48.4102" y="31.5076" width="3.41576" height="3.42313" fill="#454545"/>
<rect x="17.668" y="34.9307" width="3.41576" height="3.42313" fill="#454545"/>
<rect x="48.4102" y="34.9307" width="3.41576" height="3.42313" fill="#454545"/>
<rect x="17.668" y="38.3538" width="3.41576" height="3.42313" fill="#454545"/>
<rect x="48.4102" y="38.3538" width="3.41576" height="3.42313" fill="#454545"/>
<rect x="21.084" y="41.7771" width="3.41576" height="3.42313" fill="#454545"/>
<rect x="44.9946" y="41.7771" width="3.41576" height="3.42313" fill="#454545"/>
<rect x="21.084" y="17.8149" width="3.41576" height="3.42313" fill="#454545"/>
<rect x="44.9946" y="17.8149" width="3.41576" height="3.42313" fill="#454545"/>
<rect x="24" y="45" width="21" height="14" fill="#454545"/>
<rect x="24" y="4" width="21" height="14" fill="#454545"/>
<rect x="17.668" y="28.0845" width="3.41576" height="3.42313" fill="#454545"/>
<rect x="48.4102" y="28.0845" width="3.41576" height="3.42313" fill="#454545"/>
<rect x="17.668" y="24.6614" width="3.41576" height="3.42313" fill="#454545"/>
<rect x="48.4102" y="24.6614" width="3.41576" height="3.42313" fill="#454545"/>
<rect x="17.668" y="21.2383" width="3.41576" height="3.42313" fill="#454545"/>
<rect x="48.4102" y="21.2383" width="3.41576" height="3.42313" fill="#454545"/>
<path d="M65.3706 44.656V41.9352H68.0914V22.8893H65.3706V20.1685H81.6956V22.8893H84.4164V25.6102H87.1373V28.331H84.4164V33.7727H81.6956V36.4935H76.2539V41.9352H78.9748V44.656H65.3706ZM78.9748 31.0518V25.6102H76.2539V31.0518H78.9748ZM92.5811 39.2143V41.9352H98.0228V39.2143H92.5811ZM84.4186 41.9352V39.2143H87.1395V31.0518H89.8603V25.6102H92.5811V20.1685H100.744V28.331H103.464V36.4935H106.185V41.9352H108.906V44.656H81.6978V41.9352H84.4186ZM108.919 44.656V36.4935H114.36V41.9352H119.802V36.4935H114.36V33.7727H111.64V31.0518H108.919V22.8893H111.64V20.1685H125.244V28.331H119.802V25.6102H117.081V28.331H119.802V31.0518H125.244V36.4935H127.965V41.9352H125.244V44.656H119.802V47.3768H114.36V44.656H108.919ZM130.688 44.656V41.9352H133.409V28.331H125.246V22.8893H127.967V20.1685H149.734V28.331H144.292V25.6102H141.571V41.9352H144.292V44.656H130.688Z" fill="#454545"/>
</svg>
